<svg width="18" height="19" viewBox="0 0 18 19" fill="none" xmlns="http://www.w3.org/2000/svg">
<path fill-rule="evenodd" clip-rule="evenodd" d="M0.73421 0.733697C-0.244054 1.71196 -0.244054 3.29804 0.734209 4.2763L5.55874 9.10084L0.733697 13.9259C-0.244566 14.9041 -0.244565 16.4902 0.733698 17.4685C1.71196 18.4468 3.29804 18.4468 4.2763 17.4685L9.10135 12.6434L13.7238 17.2659C14.702 18.2441 16.2881 18.2441 17.2664 17.2659C18.2446 16.2876 18.2446 14.7015 17.2664 13.7233L12.644 9.10084L17.2659 4.47894C18.2441 3.50067 18.2441 1.9146 17.2659 0.936332C16.2876 -0.0419315 14.7015 -0.0419315 13.7232 0.936332L9.10135 5.55823L4.27681 0.733698C3.29855 -0.244566 1.71247 -0.244566 0.73421 0.733697Z" fill="#2F2117"/>
</svg>
