<svg width="30" height="26" viewBox="0 0 30 26" fill="none" xmlns="http://www.w3.org/2000/svg">
<path fill-rule="evenodd" clip-rule="evenodd" d="M17.7662 0.435729C18.6302 -0.252485 19.8885 -0.110009 20.5767 0.753956L28.8263 11.1103C29.323 11.7339 29.387 12.5629 29.0593 13.2347C29.0721 13.6899 28.9303 14.1519 28.6244 14.536L20.3748 24.8924C19.6866 25.7563 18.4283 25.8988 17.5643 25.2106C16.7003 24.5224 16.5579 23.2641 17.2461 22.4001L23.1408 15H2C0.895431 15 0 14.1046 0 13C0 11.8954 0.895431 11 2 11H23.6245L17.448 3.2462C16.7598 2.38223 16.9023 1.12394 17.7662 0.435729Z" fill="#FA9D47"/>
</svg>
