<svg width="30" height="26" viewBox="0 0 30 26" fill="none" xmlns="http://www.w3.org/2000/svg">
<path fill-rule="evenodd" clip-rule="evenodd" d="M11.4955 0.435729C10.6315 -0.252485 9.37325 -0.110009 8.68503 0.753956L0.43541 11.1103C-0.0613155 11.7339 -0.125303 12.5629 0.202391 13.2347C0.189596 13.6899 0.331375 14.1519 0.637323 14.536L8.88695 24.8924C9.57516 25.7563 10.8334 25.8988 11.6974 25.2106C12.5614 24.5224 12.7039 23.2641 12.0156 22.4001L6.12089 15H27.2617C28.3663 15 29.2617 14.1046 29.2617 13C29.2617 11.8954 28.3663 11 27.2617 11H5.63724L11.8137 3.2462C12.5019 2.38223 12.3595 1.12394 11.4955 0.435729Z" fill="#FA9D47"/>
</svg>
