<svg width="37" height="40" viewBox="0 0 37 40" fill="none" xmlns="http://www.w3.org/2000/svg">
<g filter="url(#filter0_d)">
<g clip-path="url(#clip0)">
<path d="M20.2527 7.05478L16.0865 7.11551C15.8566 7.11886 15.6726 7.30823 15.676 7.53819C15.6793 7.76814 15.8687 7.95207 16.0987 7.94872L20.2649 7.88799C20.4948 7.88464 20.6788 7.69527 20.6754 7.46531C20.6721 7.23536 20.4827 7.05143 20.2527 7.05478Z" fill="#FA9D47"/>
<path d="M23.1691 7.01227L22.7525 7.01834C22.5226 7.02169 22.3387 7.21106 22.342 7.44102C22.3454 7.67098 22.5347 7.8549 22.7647 7.85155L23.1813 7.84548C23.4112 7.84213 23.5952 7.65276 23.5918 7.4228C23.5885 7.19285 23.3991 7.00892 23.1691 7.01227Z" fill="#FA9D47"/>
<path d="M18.9788 27.0756L17.9444 27.0907C17.3107 27.0999 16.8024 27.6232 16.8117 28.2569L16.8146 28.4581C16.8238 29.0918 17.3471 29.5996 17.9804 29.5904L19.0149 29.5753C19.6485 29.5661 20.1568 29.0432 20.1476 28.4095L20.1446 28.2083C20.1354 27.5746 19.6121 27.0664 18.9788 27.0756ZM19.3143 28.4217C19.3169 28.5958 19.1773 28.7395 19.0032 28.7421L17.9687 28.7571C17.7941 28.7597 17.6504 28.6201 17.6478 28.446L17.6449 28.2447C17.6423 28.0702 17.7819 27.9264 17.9565 27.9239L18.9906 27.9088C19.1652 27.9063 19.3089 28.0458 19.3114 28.2204L19.3143 28.4217Z" fill="#FA9D47"/>
<path d="M23.3118 5.76029L12.1584 5.92287C11.3281 5.93497 10.6622 6.62058 10.6743 7.45091L10.9948 29.4361C11.0069 30.2664 11.6925 30.9323 12.5228 30.9202L23.6758 30.7576C24.5061 30.7455 25.172 30.0599 25.1599 29.23L24.8394 7.24443C24.8274 6.4141 24.1418 5.74819 23.3118 5.76029ZM24.3267 29.2417C24.3321 29.6126 24.0349 29.919 23.6641 29.9244L12.5107 30.087C12.1395 30.0924 11.8334 29.7947 11.828 29.4243L11.5076 7.43877C11.5022 7.06796 11.7994 6.76154 12.1706 6.75613L23.3235 6.59356C23.6947 6.58815 24.0008 6.88582 24.0062 7.25658L24.3267 29.2417L24.3267 29.2417Z" fill="#FA9D47"/>
<path d="M24.854 8.23807L11.5221 8.4324C11.2921 8.43576 11.1082 8.62513 11.1115 8.85508L11.3666 26.3532C11.37 26.5832 11.5593 26.7671 11.7893 26.7638L25.1212 26.5694C25.3512 26.5661 25.5351 26.3767 25.5318 26.1467L25.2767 8.6486C25.2733 8.41864 25.084 8.23472 24.854 8.23807ZM24.6924 25.7423L12.1937 25.9245L11.9508 9.25959L24.4495 9.0774L24.6924 25.7423Z" fill="#FA9D47"/>
</g>
</g>
<defs>
<filter id="filter0_d" x="1.65332" y="5.65332" width="33.3617" height="33.3617" filterUnits="userSpaceOnUse" color-interpolation-filters="sRGB">
<feFlood flood-opacity="0" result="BackgroundImageFix"/>
<feColorMatrix in="SourceAlpha" type="matrix" values="0 0 0 0 0 0 0 0 0 0 0 0 0 0 0 0 0 0 127 0"/>
<feOffset dy="4"/>
<feGaussianBlur stdDeviation="2"/>
<feColorMatrix type="matrix" values="0 0 0 0 0 0 0 0 0 0 0 0 0 0 0 0 0 0 0.25 0"/>
<feBlend mode="normal" in2="BackgroundImageFix" result="effect1_dropShadow"/>
<feBlend mode="normal" in="SourceGraphic" in2="effect1_dropShadow" result="shape"/>
</filter>
<clipPath id="clip0">
<rect width="25" height="25" fill="white" transform="translate(5.65332 6.01758) rotate(-0.835128)"/>
</clipPath>
</defs>
</svg>
